<?xml version="1.0" encoding="utf-8" standalone="no"?>
<!DOCTYPE svg PUBLIC "-//W3C//DTD SVG 1.1//EN"
  "http://www.w3.org/Graphics/SVG/1.1/DTD/svg11.dtd">
<svg xmlns:xlink="http://www.w3.org/1999/xlink" width="890.670937pt" height="335.881812pt" viewBox="0 0 890.670937 335.881812" xmlns="http://www.w3.org/2000/svg" version="1.1">
 <metadata>
  <rdf:RDF xmlns:dc="http://purl.org/dc/elements/1.1/" xmlns:cc="http://creativecommons.org/ns#" xmlns:rdf="http://www.w3.org/1999/02/22-rdf-syntax-ns#">
   <cc:Work>
    <dc:type rdf:resource="http://purl.org/dc/dcmitype/StillImage"/>
    <dc:date>2026-09-14T16:33:36.943948</dc:date>
    <dc:format>image/svg+xml</dc:format>
    <dc:creator>
     <cc:Agent>
      <dc:title>Matplotlib v3.9.2, https://matplotlib.org/</dc:title>
     </cc:Agent>
    </dc:creator>
   </cc:Work>
  </rdf:RDF>
 </metadata>
 <defs>
  <style type="text/css">*{stroke-linejoin: round; stroke-linecap: butt}</style>
 </defs>
 <g id="figure_1">
  <g id="patch_1">
   <path d="M 0 335.881812
L 890.670937 335.881812
L 890.670937 0
L 0 0
z
" style="fill: #ffffff"/>
  </g>
  <g id="axes_1">
   <g id="patch_2">
    <path d="M 56.840938 296.389937
L 883.470937 296.389937
L 883.470937 23.229937
L 56.840938 23.229937
z
" style="fill: #ffffff"/>
   </g>
   <g id="patch_3">
    <path d="M 94.415028 296.389937
L 102.764826 296.389937
L 102.764826 296.333123
L 94.415028 296.333123
z
" clip-path="url(#p3983963bb0)" style="fill: #e07a5f; opacity: 0.75; stroke: #ffffff; stroke-width: 0.2; stroke-linejoin: miter"/>
   </g>
   <g id="patch_4">
    <path d="M 102.764826 296.389937
L 111.114624 296.389937
L 111.114624 296.389937
L 102.764826 296.389937
z
" clip-path="url(#p3983963bb0)" style="fill: #e07a5f; opacity: 0.75; stroke: #ffffff; stroke-width: 0.2; stroke-linejoin: miter"/>
   </g>
   <g id="patch_5">
    <path d="M 111.114624 296.389937
L 119.464422 296.389937
L 119.464422 296.389937
L 111.114624 296.389937
z
" clip-path="url(#p3983963bb0)" style="fill: #e07a5f; opacity: 0.75; stroke: #ffffff; stroke-width: 0.2; stroke-linejoin: miter"/>
   </g>
   <g id="patch_6">
    <path d="M 119.464422 296.389937
L 127.81422 296.389937
L 127.81422 296.333123
L 119.464422 296.333123
z
" clip-path="url(#p3983963bb0)" style="fill: #e07a5f; opacity: 0.75; stroke: #ffffff; stroke-width: 0.2; stroke-linejoin: miter"/>
   </g>
   <g id="patch_7">
    <path d="M 127.81422 296.389937
L 136.164018 296.389937
L 136.164018 296.389937
L 127.81422 296.389937
z
" clip-path="url(#p3983963bb0)" style="fill: #e07a5f; opacity: 0.75; stroke: #ffffff; stroke-width: 0.2; stroke-linejoin: miter"/>
   </g>
   <g id="patch_8">
    <path d="M 136.164018 296.389937
L 144.513816 296.389937
L 144.513816 296.389937
L 136.164018 296.389937
z
" clip-path="url(#p3983963bb0)" style="fill: #e07a5f; opacity: 0.75; stroke: #ffffff; stroke-width: 0.2; stroke-linejoin: miter"/>
   </g>
   <g id="patch_9">
    <path d="M 144.513816 296.389937
L 152.863614 296.389937
L 152.863614 296.333123
L 144.513816 296.333123
z
" clip-path="url(#p3983963bb0)" style="fill: #e07a5f; opacity: 0.75; stroke: #ffffff; stroke-width: 0.2; stroke-linejoin: miter"/>
   </g>
   <g id="patch_10">
    <path d="M 152.863614 296.389937
L 161.213412 296.389937
L 161.213412 295.935424
L 152.863614 295.935424
z
" clip-path="url(#p3983963bb0)" style="fill: #e07a5f; opacity: 0.75; stroke: #ffffff; stroke-width: 0.2; stroke-linejoin: miter"/>
   </g>
   <g id="patch_11">
    <path d="M 161.213412 296.389937
L 169.56321 296.389937
L 169.56321 295.764981
L 161.213412 295.764981
z
" clip-path="url(#p3983963bb0)" style="fill: #e07a5f; opacity: 0.75; stroke: #ffffff; stroke-width: 0.2; stroke-linejoin: miter"/>
   </g>
   <g id="patch_12">
    <path d="M 169.56321 296.389937
L 177.913008 296.389937
L 177.913008 294.912767
L 169.56321 294.912767
z
" clip-path="url(#p3983963bb0)" style="fill: #e07a5f; opacity: 0.75; stroke: #ffffff; stroke-width: 0.2; stroke-linejoin: miter"/>
   </g>
   <g id="patch_13">
    <path d="M 177.913008 296.389937
L 186.262806 296.389937
L 186.262806 293.094712
L 177.913008 293.094712
z
" clip-path="url(#p3983963bb0)" style="fill: #e07a5f; opacity: 0.75; stroke: #ffffff; stroke-width: 0.2; stroke-linejoin: miter"/>
   </g>
   <g id="patch_14">
    <path d="M 186.262806 296.389937
L 194.612604 296.389937
L 194.612604 288.720016
L 186.262806 288.720016
z
" clip-path="url(#p3983963bb0)" style="fill: #e07a5f; opacity: 0.75; stroke: #ffffff; stroke-width: 0.2; stroke-linejoin: miter"/>
   </g>
   <g id="patch_15">
    <path d="M 194.612604 296.389937
L 202.962402 296.389937
L 202.962402 286.277004
L 194.612604 286.277004
z
" clip-path="url(#p3983963bb0)" style="fill: #e07a5f; opacity: 0.75; stroke: #ffffff; stroke-width: 0.2; stroke-linejoin: miter"/>
   </g>
   <g id="patch_16">
    <path d="M 202.962402 296.389937
L 211.3122 296.389937
L 211.3122 278.209382
L 202.962402 278.209382
z
" clip-path="url(#p3983963bb0)" style="fill: #e07a5f; opacity: 0.75; stroke: #ffffff; stroke-width: 0.2; stroke-linejoin: miter"/>
   </g>
   <g id="patch_17">
    <path d="M 211.3122 296.389937
L 219.661998 296.389937
L 219.661998 268.664591
L 211.3122 268.664591
z
" clip-path="url(#p3983963bb0)" style="fill: #e07a5f; opacity: 0.75; stroke: #ffffff; stroke-width: 0.2; stroke-linejoin: miter"/>
   </g>
   <g id="patch_18">
    <path d="M 219.661998 296.389937
L 228.011796 296.389937
L 228.011796 258.608471
L 219.661998 258.608471
z
" clip-path="url(#p3983963bb0)" style="fill: #e07a5f; opacity: 0.75; stroke: #ffffff; stroke-width: 0.2; stroke-linejoin: miter"/>
   </g>
   <g id="patch_19">
    <path d="M 228.011796 296.389937
L 236.361594 296.389937
L 236.361594 248.268281
L 228.011796 248.268281
z
" clip-path="url(#p3983963bb0)" style="fill: #e07a5f; opacity: 0.75; stroke: #ffffff; stroke-width: 0.2; stroke-linejoin: miter"/>
   </g>
   <g id="patch_20">
    <path d="M 236.361594 296.389937
L 244.711392 296.389937
L 244.711392 232.644366
L 236.361594 232.644366
z
" clip-path="url(#p3983963bb0)" style="fill: #e07a5f; opacity: 0.75; stroke: #ffffff; stroke-width: 0.2; stroke-linejoin: miter"/>
   </g>
   <g id="patch_21">
    <path d="M 244.711392 296.389937
L 253.06119 296.389937
L 253.06119 215.372839
L 244.711392 215.372839
z
" clip-path="url(#p3983963bb0)" style="fill: #e07a5f; opacity: 0.75; stroke: #ffffff; stroke-width: 0.2; stroke-linejoin: miter"/>
   </g>
   <g id="patch_22">
    <path d="M 253.06119 296.389937
L 261.410988 296.389937
L 261.410988 191.90856
L 253.06119 191.90856
z
" clip-path="url(#p3983963bb0)" style="fill: #e07a5f; opacity: 0.75; stroke: #ffffff; stroke-width: 0.2; stroke-linejoin: miter"/>
   </g>
   <g id="patch_23">
    <path d="M 261.410988 296.389937
L 269.760786 296.389937
L 269.760786 168.103395
L 261.410988 168.103395
z
" clip-path="url(#p3983963bb0)" style="fill: #e07a5f; opacity: 0.75; stroke: #ffffff; stroke-width: 0.2; stroke-linejoin: miter"/>
   </g>
   <g id="patch_24">
    <path d="M 269.760786 296.389937
L 278.110584 296.389937
L 278.110584 137.026009
L 269.760786 137.026009
z
" clip-path="url(#p3983963bb0)" style="fill: #e07a5f; opacity: 0.75; stroke: #ffffff; stroke-width: 0.2; stroke-linejoin: miter"/>
   </g>
   <g id="patch_25">
    <path d="M 278.110584 296.389937
L 286.460382 296.389937
L 286.460382 111.800489
L 278.110584 111.800489
z
" clip-path="url(#p3983963bb0)" style="fill: #e07a5f; opacity: 0.75; stroke: #ffffff; stroke-width: 0.2; stroke-linejoin: miter"/>
   </g>
   <g id="patch_26">
    <path d="M 286.460382 296.389937
L 294.81018 296.389937
L 294.81018 79.75726
L 286.460382 79.75726
z
" clip-path="url(#p3983963bb0)" style="fill: #e07a5f; opacity: 0.75; stroke: #ffffff; stroke-width: 0.2; stroke-linejoin: miter"/>
   </g>
   <g id="patch_27">
    <path d="M 294.81018 296.389937
L 303.159978 296.389937
L 303.159978 50.952443
L 294.81018 50.952443
z
" clip-path="url(#p3983963bb0)" style="fill: #e07a5f; opacity: 0.75; stroke: #ffffff; stroke-width: 0.2; stroke-linejoin: miter"/>
   </g>
   <g id="patch_28">
    <path d="M 303.159978 296.389937
L 311.509776 296.389937
L 311.509776 36.237557
L 303.159978 36.237557
z
" clip-path="url(#p3983963bb0)" style="fill: #e07a5f; opacity: 0.75; stroke: #ffffff; stroke-width: 0.2; stroke-linejoin: miter"/>
   </g>
   <g id="patch_29">
    <path d="M 311.509776 296.389937
L 319.859574 296.389937
L 319.859574 39.419154
L 311.509776 39.419154
z
" clip-path="url(#p3983963bb0)" style="fill: #e07a5f; opacity: 0.75; stroke: #ffffff; stroke-width: 0.2; stroke-linejoin: miter"/>
   </g>
   <g id="patch_30">
    <path d="M 319.859574 296.389937
L 328.209372 296.389937
L 328.209372 44.986949
L 319.859574 44.986949
z
" clip-path="url(#p3983963bb0)" style="fill: #e07a5f; opacity: 0.75; stroke: #ffffff; stroke-width: 0.2; stroke-linejoin: miter"/>
   </g>
   <g id="patch_31">
    <path d="M 328.209372 296.389937
L 336.55917 296.389937
L 336.55917 62.599361
L 328.209372 62.599361
z
" clip-path="url(#p3983963bb0)" style="fill: #e07a5f; opacity: 0.75; stroke: #ffffff; stroke-width: 0.2; stroke-linejoin: miter"/>
   </g>
   <g id="patch_32">
    <path d="M 336.55917 296.389937
L 344.908968 296.389937
L 344.908968 79.814075
L 336.55917 79.814075
z
" clip-path="url(#p3983963bb0)" style="fill: #e07a5f; opacity: 0.75; stroke: #ffffff; stroke-width: 0.2; stroke-linejoin: miter"/>
   </g>
   <g id="patch_33">
    <path d="M 344.908968 296.389937
L 353.258766 296.389937
L 353.258766 123.390593
L 344.908968 123.390593
z
" clip-path="url(#p3983963bb0)" style="fill: #e07a5f; opacity: 0.75; stroke: #ffffff; stroke-width: 0.2; stroke-linejoin: miter"/>
   </g>
   <g id="patch_34">
    <path d="M 353.258766 296.389937
L 361.608564 296.389937
L 361.608564 158.047276
L 353.258766 158.047276
z
" clip-path="url(#p3983963bb0)" style="fill: #e07a5f; opacity: 0.75; stroke: #ffffff; stroke-width: 0.2; stroke-linejoin: miter"/>
   </g>
   <g id="patch_35">
    <path d="M 361.608564 296.389937
L 369.958362 296.389937
L 369.958362 203.612292
L 361.608564 203.612292
z
" clip-path="url(#p3983963bb0)" style="fill: #e07a5f; opacity: 0.75; stroke: #ffffff; stroke-width: 0.2; stroke-linejoin: miter"/>
   </g>
   <g id="patch_36">
    <path d="M 369.958362 296.389937
L 378.30816 296.389937
L 378.30816 224.860816
L 369.958362 224.860816
z
" clip-path="url(#p3983963bb0)" style="fill: #e07a5f; opacity: 0.75; stroke: #ffffff; stroke-width: 0.2; stroke-linejoin: miter"/>
   </g>
   <g id="patch_37">
    <path d="M 378.30816 296.389937
L 386.657958 296.389937
L 386.657958 241.336944
L 378.30816 241.336944
z
" clip-path="url(#p3983963bb0)" style="fill: #e07a5f; opacity: 0.75; stroke: #ffffff; stroke-width: 0.2; stroke-linejoin: miter"/>
   </g>
   <g id="patch_38">
    <path d="M 386.657958 296.389937
L 395.007756 296.389937
L 395.007756 254.404218
L 386.657958 254.404218
z
" clip-path="url(#p3983963bb0)" style="fill: #e07a5f; opacity: 0.75; stroke: #ffffff; stroke-width: 0.2; stroke-linejoin: miter"/>
   </g>
   <g id="patch_39">
    <path d="M 395.007756 296.389937
L 403.357554 296.389937
L 403.357554 264.119452
L 395.007756 264.119452
z
" clip-path="url(#p3983963bb0)" style="fill: #e07a5f; opacity: 0.75; stroke: #ffffff; stroke-width: 0.2; stroke-linejoin: miter"/>
   </g>
   <g id="patch_40">
    <path d="M 403.357554 296.389937
L 411.707352 296.389937
L 411.707352 270.766718
L 403.357554 270.766718
z
" clip-path="url(#p3983963bb0)" style="fill: #e07a5f; opacity: 0.75; stroke: #ffffff; stroke-width: 0.2; stroke-linejoin: miter"/>
   </g>
   <g id="patch_41">
    <path d="M 411.707352 296.389937
L 420.05715 296.389937
L 420.05715 278.03894
L 411.707352 278.03894
z
" clip-path="url(#p3983963bb0)" style="fill: #e07a5f; opacity: 0.75; stroke: #ffffff; stroke-width: 0.2; stroke-linejoin: miter"/>
   </g>
   <g id="patch_42">
    <path d="M 420.05715 296.389937
L 428.406948 296.389937
L 428.406948 281.277351
L 420.05715 281.277351
z
" clip-path="url(#p3983963bb0)" style="fill: #e07a5f; opacity: 0.75; stroke: #ffffff; stroke-width: 0.2; stroke-linejoin: miter"/>
   </g>
   <g id="patch_43">
    <path d="M 428.406948 296.389937
L 436.756746 296.389937
L 436.756746 283.777177
L 428.406948 283.777177
z
" clip-path="url(#p3983963bb0)" style="fill: #e07a5f; opacity: 0.75; stroke: #ffffff; stroke-width: 0.2; stroke-linejoin: miter"/>
   </g>
   <g id="patch_44">
    <path d="M 436.756746 296.389937
L 445.106544 296.389937
L 445.106544 284.061249
L 436.756746 284.061249
z
" clip-path="url(#p3983963bb0)" style="fill: #e07a5f; opacity: 0.75; stroke: #ffffff; stroke-width: 0.2; stroke-linejoin: miter"/>
   </g>
   <g id="patch_45">
    <path d="M 445.106544 296.389937
L 453.456342 296.389937
L 453.456342 285.197533
L 445.106544 285.197533
z
" clip-path="url(#p3983963bb0)" style="fill: #e07a5f; opacity: 0.75; stroke: #ffffff; stroke-width: 0.2; stroke-linejoin: miter"/>
   </g>
   <g id="patch_46">
    <path d="M 453.456342 296.389937
L 461.80614 296.389937
L 461.80614 287.015589
L 453.456342 287.015589
z
" clip-path="url(#p3983963bb0)" style="fill: #e07a5f; opacity: 0.75; stroke: #ffffff; stroke-width: 0.2; stroke-linejoin: miter"/>
   </g>
   <g id="patch_47">
    <path d="M 461.80614 296.389937
L 470.155937 296.389937
L 470.155937 289.742672
L 461.80614 289.742672
z
" clip-path="url(#p3983963bb0)" style="fill: #e07a5f; opacity: 0.75; stroke: #ffffff; stroke-width: 0.2; stroke-linejoin: miter"/>
   </g>
   <g id="patch_48">
    <path d="M 470.155938 296.389937
L 478.505735 296.389937
L 478.505735 289.458601
L 470.155938 289.458601
z
" clip-path="url(#p3983963bb0)" style="fill: #e07a5f; opacity: 0.75; stroke: #ffffff; stroke-width: 0.2; stroke-linejoin: miter"/>
   </g>
   <g id="patch_49">
    <path d="M 478.505735 296.389937
L 486.855533 296.389937
L 486.855533 290.822142
L 478.505735 290.822142
z
" clip-path="url(#p3983963bb0)" style="fill: #e07a5f; opacity: 0.75; stroke: #ffffff; stroke-width: 0.2; stroke-linejoin: miter"/>
   </g>
   <g id="patch_50">
    <path d="M 486.855533 296.389937
L 495.205331 296.389937
L 495.205331 291.390285
L 486.855533 291.390285
z
" clip-path="url(#p3983963bb0)" style="fill: #e07a5f; opacity: 0.75; stroke: #ffffff; stroke-width: 0.2; stroke-linejoin: miter"/>
   </g>
   <g id="patch_51">
    <path d="M 495.205331 296.389937
L 503.555129 296.389937
L 503.555129 292.412941
L 495.205331 292.412941
z
" clip-path="url(#p3983963bb0)" style="fill: #e07a5f; opacity: 0.75; stroke: #ffffff; stroke-width: 0.2; stroke-linejoin: miter"/>
   </g>
   <g id="patch_52">
    <path d="M 503.555129 296.389937
L 511.904927 296.389937
L 511.904927 292.640198
L 503.555129 292.640198
z
" clip-path="url(#p3983963bb0)" style="fill: #e07a5f; opacity: 0.75; stroke: #ffffff; stroke-width: 0.2; stroke-linejoin: miter"/>
   </g>
   <g id="patch_53">
    <path d="M 511.904927 296.389937
L 520.254725 296.389937
L 520.254725 293.20834
L 511.904927 293.20834
z
" clip-path="url(#p3983963bb0)" style="fill: #e07a5f; opacity: 0.75; stroke: #ffffff; stroke-width: 0.2; stroke-linejoin: miter"/>
   </g>
   <g id="patch_54">
    <path d="M 520.254725 296.389937
L 528.604523 296.389937
L 528.604523 293.094712
L 520.254725 293.094712
z
" clip-path="url(#p3983963bb0)" style="fill: #e07a5f; opacity: 0.75; stroke: #ffffff; stroke-width: 0.2; stroke-linejoin: miter"/>
   </g>
   <g id="patch_55">
    <path d="M 528.604523 296.389937
L 536.954321 296.389937
L 536.954321 293.549226
L 528.604523 293.549226
z
" clip-path="url(#p3983963bb0)" style="fill: #e07a5f; opacity: 0.75; stroke: #ffffff; stroke-width: 0.2; stroke-linejoin: miter"/>
   </g>
   <g id="patch_56">
    <path d="M 536.954321 296.389937
L 545.304119 296.389937
L 545.304119 295.08321
L 536.954321 295.08321
z
" clip-path="url(#p3983963bb0)" style="fill: #e07a5f; opacity: 0.75; stroke: #ffffff; stroke-width: 0.2; stroke-linejoin: miter"/>
   </g>
   <g id="patch_57">
    <path d="M 545.304119 296.389937
L 553.653917 296.389937
L 553.653917 295.026396
L 545.304119 295.026396
z
" clip-path="url(#p3983963bb0)" style="fill: #e07a5f; opacity: 0.75; stroke: #ffffff; stroke-width: 0.2; stroke-linejoin: miter"/>
   </g>
   <g id="patch_58">
    <path d="M 553.653917 296.389937
L 562.003715 296.389937
L 562.003715 294.515068
L 553.653917 294.515068
z
" clip-path="url(#p3983963bb0)" style="fill: #e07a5f; opacity: 0.75; stroke: #ffffff; stroke-width: 0.2; stroke-linejoin: miter"/>
   </g>
   <g id="patch_59">
    <path d="M 562.003715 296.389937
L 570.353513 296.389937
L 570.353513 295.08321
L 562.003715 295.08321
z
" clip-path="url(#p3983963bb0)" style="fill: #e07a5f; opacity: 0.75; stroke: #ffffff; stroke-width: 0.2; stroke-linejoin: miter"/>
   </g>
   <g id="patch_60">
    <path d="M 570.353513 296.389937
L 578.703311 296.389937
L 578.703311 295.196839
L 570.353513 295.196839
z
" clip-path="url(#p3983963bb0)" style="fill: #e07a5f; opacity: 0.75; stroke: #ffffff; stroke-width: 0.2; stroke-linejoin: miter"/>
   </g>
   <g id="patch_61">
    <path d="M 578.703311 296.389937
L 587.053109 296.389937
L 587.053109 295.594538
L 578.703311 295.594538
z
" clip-path="url(#p3983963bb0)" style="fill: #e07a5f; opacity: 0.75; stroke: #ffffff; stroke-width: 0.2; stroke-linejoin: miter"/>
   </g>
   <g id="patch_62">
    <path d="M 587.053109 296.389937
L 595.402907 296.389937
L 595.402907 295.367281
L 587.053109 295.367281
z
" clip-path="url(#p3983963bb0)" style="fill: #e07a5f; opacity: 0.75; stroke: #ffffff; stroke-width: 0.2; stroke-linejoin: miter"/>
   </g>
   <g id="patch_63">
    <path d="M 595.402907 296.389937
L 603.752705 296.389937
L 603.752705 295.424096
L 595.402907 295.424096
z
" clip-path="url(#p3983963bb0)" style="fill: #e07a5f; opacity: 0.75; stroke: #ffffff; stroke-width: 0.2; stroke-linejoin: miter"/>
   </g>
   <g id="patch_64">
    <path d="M 603.752705 296.389937
L 612.102503 296.389937
L 612.102503 295.594538
L 603.752705 295.594538
z
" clip-path="url(#p3983963bb0)" style="fill: #e07a5f; opacity: 0.75; stroke: #ffffff; stroke-width: 0.2; stroke-linejoin: miter"/>
   </g>
   <g id="patch_65">
    <path d="M 612.102503 296.389937
L 620.452301 296.389937
L 620.452301 295.48091
L 612.102503 295.48091
z
" clip-path="url(#p3983963bb0)" style="fill: #e07a5f; opacity: 0.75; stroke: #ffffff; stroke-width: 0.2; stroke-linejoin: miter"/>
   </g>
   <g id="patch_66">
    <path d="M 620.452301 296.389937
L 628.802099 296.389937
L 628.802099 295.310467
L 620.452301 295.310467
z
" clip-path="url(#p3983963bb0)" style="fill: #e07a5f; opacity: 0.75; stroke: #ffffff; stroke-width: 0.2; stroke-linejoin: miter"/>
   </g>
   <g id="patch_67">
    <path d="M 628.802099 296.389937
L 637.151897 296.389937
L 637.151897 295.367281
L 628.802099 295.367281
z
" clip-path="url(#p3983963bb0)" style="fill: #e07a5f; opacity: 0.75; stroke: #ffffff; stroke-width: 0.2; stroke-linejoin: miter"/>
   </g>
   <g id="patch_68">
    <path d="M 637.151897 296.389937
L 645.501695 296.389937
L 645.501695 294.912767
L 637.151897 294.912767
z
" clip-path="url(#p3983963bb0)" style="fill: #e07a5f; opacity: 0.75; stroke: #ffffff; stroke-width: 0.2; stroke-linejoin: miter"/>
   </g>
   <g id="patch_69">
    <path d="M 645.501695 296.389937
L 653.851493 296.389937
L 653.851493 295.196839
L 645.501695 295.196839
z
" clip-path="url(#p3983963bb0)" style="fill: #e07a5f; opacity: 0.75; stroke: #ffffff; stroke-width: 0.2; stroke-linejoin: miter"/>
   </g>
   <g id="patch_70">
    <path d="M 653.851493 296.389937
L 662.201291 296.389937
L 662.201291 295.140024
L 653.851493 295.140024
z
" clip-path="url(#p3983963bb0)" style="fill: #e07a5f; opacity: 0.75; stroke: #ffffff; stroke-width: 0.2; stroke-linejoin: miter"/>
   </g>
   <g id="patch_71">
    <path d="M 662.201291 296.389937
L 670.551089 296.389937
L 670.551089 295.253653
L 662.201291 295.253653
z
" clip-path="url(#p3983963bb0)" style="fill: #e07a5f; opacity: 0.75; stroke: #ffffff; stroke-width: 0.2; stroke-linejoin: miter"/>
   </g>
   <g id="patch_72">
    <path d="M 670.551089 296.389937
L 678.900887 296.389937
L 678.900887 295.537724
L 670.551089 295.537724
z
" clip-path="url(#p3983963bb0)" style="fill: #e07a5f; opacity: 0.75; stroke: #ffffff; stroke-width: 0.2; stroke-linejoin: miter"/>
   </g>
   <g id="patch_73">
    <path d="M 678.900887 296.389937
L 687.250685 296.389937
L 687.250685 295.537724
L 678.900887 295.537724
z
" clip-path="url(#p3983963bb0)" style="fill: #e07a5f; opacity: 0.75; stroke: #ffffff; stroke-width: 0.2; stroke-linejoin: miter"/>
   </g>
   <g id="patch_74">
    <path d="M 687.250685 296.389937
L 695.600483 296.389937
L 695.600483 295.651352
L 687.250685 295.651352
z
" clip-path="url(#p3983963bb0)" style="fill: #e07a5f; opacity: 0.75; stroke: #ffffff; stroke-width: 0.2; stroke-linejoin: miter"/>
   </g>
   <g id="patch_75">
    <path d="M 695.600483 296.389937
L 703.950281 296.389937
L 703.950281 294.742325
L 695.600483 294.742325
z
" clip-path="url(#p3983963bb0)" style="fill: #e07a5f; opacity: 0.75; stroke: #ffffff; stroke-width: 0.2; stroke-linejoin: miter"/>
   </g>
   <g id="patch_76">
    <path d="M 703.950281 296.389937
L 712.300079 296.389937
L 712.300079 295.367281
L 703.950281 295.367281
z
" clip-path="url(#p3983963bb0)" style="fill: #e07a5f; opacity: 0.75; stroke: #ffffff; stroke-width: 0.2; stroke-linejoin: miter"/>
   </g>
   <g id="patch_77">
    <path d="M 712.300079 296.389937
L 720.649877 296.389937
L 720.649877 295.424096
L 712.300079 295.424096
z
" clip-path="url(#p3983963bb0)" style="fill: #e07a5f; opacity: 0.75; stroke: #ffffff; stroke-width: 0.2; stroke-linejoin: miter"/>
   </g>
   <g id="patch_78">
    <path d="M 720.649877 296.389937
L 728.999675 296.389937
L 728.999675 295.310467
L 720.649877 295.310467
z
" clip-path="url(#p3983963bb0)" style="fill: #e07a5f; opacity: 0.75; stroke: #ffffff; stroke-width: 0.2; stroke-linejoin: miter"/>
   </g>
   <g id="patch_79">
    <path d="M 728.999675 296.389937
L 737.349473 296.389937
L 737.349473 295.196839
L 728.999675 295.196839
z
" clip-path="url(#p3983963bb0)" style="fill: #e07a5f; opacity: 0.75; stroke: #ffffff; stroke-width: 0.2; stroke-linejoin: miter"/>
   </g>
   <g id="patch_80">
    <path d="M 737.349473 296.389937
L 745.699271 296.389937
L 745.699271 295.537724
L 737.349473 295.537724
z
" clip-path="url(#p3983963bb0)" style="fill: #e07a5f; opacity: 0.75; stroke: #ffffff; stroke-width: 0.2; stroke-linejoin: miter"/>
   </g>
   <g id="patch_81">
    <path d="M 745.699271 296.389937
L 754.049069 296.389937
L 754.049069 295.310467
L 745.699271 295.310467
z
" clip-path="url(#p3983963bb0)" style="fill: #e07a5f; opacity: 0.75; stroke: #ffffff; stroke-width: 0.2; stroke-linejoin: miter"/>
   </g>
   <g id="patch_82">
    <path d="M 754.049069 296.389937
L 762.398867 296.389937
L 762.398867 296.105866
L 754.049069 296.105866
z
" clip-path="url(#p3983963bb0)" style="fill: #e07a5f; opacity: 0.75; stroke: #ffffff; stroke-width: 0.2; stroke-linejoin: miter"/>
   </g>
   <g id="patch_83">
    <path d="M 762.398867 296.389937
L 770.748665 296.389937
L 770.748665 296.049052
L 762.398867 296.049052
z
" clip-path="url(#p3983963bb0)" style="fill: #e07a5f; opacity: 0.75; stroke: #ffffff; stroke-width: 0.2; stroke-linejoin: miter"/>
   </g>
   <g id="patch_84">
    <path d="M 770.748665 296.389937
L 779.098463 296.389937
L 779.098463 295.878609
L 770.748665 295.878609
z
" clip-path="url(#p3983963bb0)" style="fill: #e07a5f; opacity: 0.75; stroke: #ffffff; stroke-width: 0.2; stroke-linejoin: miter"/>
   </g>
   <g id="patch_85">
    <path d="M 779.098463 296.389937
L 787.448261 296.389937
L 787.448261 295.821795
L 779.098463 295.821795
z
" clip-path="url(#p3983963bb0)" style="fill: #e07a5f; opacity: 0.75; stroke: #ffffff; stroke-width: 0.2; stroke-linejoin: miter"/>
   </g>
   <g id="patch_86">
    <path d="M 787.448261 296.389937
L 795.798059 296.389937
L 795.798059 296.276309
L 787.448261 296.276309
z
" clip-path="url(#p3983963bb0)" style="fill: #e07a5f; opacity: 0.75; stroke: #ffffff; stroke-width: 0.2; stroke-linejoin: miter"/>
   </g>
   <g id="patch_87">
    <path d="M 795.798059 296.389937
L 804.147857 296.389937
L 804.147857 296.105866
L 795.798059 296.105866
z
" clip-path="url(#p3983963bb0)" style="fill: #e07a5f; opacity: 0.75; stroke: #ffffff; stroke-width: 0.2; stroke-linejoin: miter"/>
   </g>
   <g id="patch_88">
    <path d="M 804.147857 296.389937
L 812.497655 296.389937
L 812.497655 296.276309
L 804.147857 296.276309
z
" clip-path="url(#p3983963bb0)" style="fill: #e07a5f; opacity: 0.75; stroke: #ffffff; stroke-width: 0.2; stroke-linejoin: miter"/>
   </g>
   <g id="patch_89">
    <path d="M 812.497655 296.389937
L 820.847453 296.389937
L 820.847453 296.333123
L 812.497655 296.333123
z
" clip-path="url(#p3983963bb0)" style="fill: #e07a5f; opacity: 0.75; stroke: #ffffff; stroke-width: 0.2; stroke-linejoin: miter"/>
   </g>
   <g id="patch_90">
    <path d="M 820.847453 296.389937
L 829.197251 296.389937
L 829.197251 296.389937
L 820.847453 296.389937
z
" clip-path="url(#p3983963bb0)" style="fill: #e07a5f; opacity: 0.75; stroke: #ffffff; stroke-width: 0.2; stroke-linejoin: miter"/>
   </g>
   <g id="patch_91">
    <path d="M 829.197251 296.389937
L 837.547049 296.389937
L 837.547049 296.389937
L 829.197251 296.389937
z
" clip-path="url(#p3983963bb0)" style="fill: #e07a5f; opacity: 0.75; stroke: #ffffff; stroke-width: 0.2; stroke-linejoin: miter"/>
   </g>
   <g id="patch_92">
    <path d="M 837.547049 296.389937
L 845.896847 296.389937
L 845.896847 296.333123
L 837.547049 296.333123
z
" clip-path="url(#p3983963bb0)" style="fill: #e07a5f; opacity: 0.75; stroke: #ffffff; stroke-width: 0.2; stroke-linejoin: miter"/>
   </g>
   <g id="matplotlib.axis_1">
    <g id="xtick_1">
     <g id="line2d_1">
      <defs>
       <path id="m7cd2a280c0" d="M 0 0
L 0 3.5
" style="stroke: #000000; stroke-width: 0.8"/>
      </defs>
      <g>
       <use xlink:href="#m7cd2a280c0" x="185.007514" y="296.389937" style="stroke: #000000; stroke-width: 0.8"/>
      </g>
     </g>
     <g id="text_1">
      <!-- −2000 -->
      <g transform="translate(166.401186 311.748219) scale(0.11 -0.11)">
       <defs>
        <path id="DejaVuSans-2212" d="M 678 2272
L 4684 2272
L 4684 1741
L 678 1741
L 678 2272
z
" transform="scale(0.015625)"/>
        <path id="DejaVuSans-32" d="M 1228 531
L 3431 531
L 3431 0
L 469 0
L 469 531
Q 828 903 1448 1529
Q 2069 2156 2228 2338
Q 2531 2678 2651 2914
Q 2772 3150 2772 3378
Q 2772 3750 2511 3984
Q 2250 4219 1831 4219
Q 1534 4219 1204 4116
Q 875 4013 500 3803
L 500 4441
Q 881 4594 1212 4672
Q 1544 4750 1819 4750
Q 2544 4750 2975 4387
Q 3406 4025 3406 3419
Q 3406 3131 3298 2873
Q 3191 2616 2906 2266
Q 2828 2175 2409 1742
Q 1991 1309 1228 531
z
" transform="scale(0.015625)"/>
        <path id="DejaVuSans-30" d="M 2034 4250
Q 1547 4250 1301 3770
Q 1056 3291 1056 2328
Q 1056 1369 1301 889
Q 1547 409 2034 409
Q 2525 409 2770 889
Q 3016 1369 3016 2328
Q 3016 3291 2770 3770
Q 2525 4250 2034 4250
z
M 2034 4750
Q 2819 4750 3233 4129
Q 3647 3509 3647 2328
Q 3647 1150 3233 529
Q 2819 -91 2034 -91
Q 1250 -91 836 529
Q 422 1150 422 2328
Q 422 3509 836 4129
Q 1250 4750 2034 4750
z
" transform="scale(0.015625)"/>
       </defs>
       <use xlink:href="#DejaVuSans-2212"/>
       <use xlink:href="#DejaVuSans-32" x="83.789062"/>
       <use xlink:href="#DejaVuSans-30" x="147.412109"/>
       <use xlink:href="#DejaVuSans-30" x="211.035156"/>
       <use xlink:href="#DejaVuSans-30" x="274.658203"/>
      </g>
     </g>
    </g>
    <g id="xtick_2">
     <g id="line2d_2">
      <g>
       <use xlink:href="#m7cd2a280c0" x="365.030486" y="296.389937" style="stroke: #000000; stroke-width: 0.8"/>
      </g>
     </g>
     <g id="text_2">
      <!-- 0 -->
      <g transform="translate(361.531111 311.748219) scale(0.11 -0.11)">
       <use xlink:href="#DejaVuSans-30"/>
      </g>
     </g>
    </g>
    <g id="xtick_3">
     <g id="line2d_3">
      <g>
       <use xlink:href="#m7cd2a280c0" x="545.053458" y="296.389937" style="stroke: #000000; stroke-width: 0.8"/>
      </g>
     </g>
     <g id="text_3">
      <!-- 2000 -->
      <g transform="translate(531.055958 311.748219) scale(0.11 -0.11)">
       <use xlink:href="#DejaVuSans-32"/>
       <use xlink:href="#DejaVuSans-30" x="63.623047"/>
       <use xlink:href="#DejaVuSans-30" x="127.246094"/>
       <use xlink:href="#DejaVuSans-30" x="190.869141"/>
      </g>
     </g>
    </g>
    <g id="xtick_4">
     <g id="line2d_4">
      <g>
       <use xlink:href="#m7cd2a280c0" x="725.076431" y="296.389937" style="stroke: #000000; stroke-width: 0.8"/>
      </g>
     </g>
     <g id="text_4">
      <!-- 4000 -->
      <g transform="translate(711.078931 311.748219) scale(0.11 -0.11)">
       <defs>
        <path id="DejaVuSans-34" d="M 2419 4116
L 825 1625
L 2419 1625
L 2419 4116
z
M 2253 4666
L 3047 4666
L 3047 1625
L 3713 1625
L 3713 1100
L 3047 1100
L 3047 0
L 2419 0
L 2419 1100
L 313 1100
L 313 1709
L 2253 4666
z
" transform="scale(0.015625)"/>
       </defs>
       <use xlink:href="#DejaVuSans-34"/>
       <use xlink:href="#DejaVuSans-30" x="63.623047"/>
       <use xlink:href="#DejaVuSans-30" x="127.246094"/>
       <use xlink:href="#DejaVuSans-30" x="190.869141"/>
      </g>
     </g>
    </g>
    <g id="text_5">
     <!-- (saved FAIR ratio − unit-face MC ratio) × 10,000 -->
     <g transform="translate(336.880625 326.394156) scale(0.11 -0.11)">
      <defs>
       <path id="DejaVuSans-28" d="M 1984 4856
Q 1566 4138 1362 3434
Q 1159 2731 1159 2009
Q 1159 1288 1364 580
Q 1569 -128 1984 -844
L 1484 -844
Q 1016 -109 783 600
Q 550 1309 550 2009
Q 550 2706 781 3412
Q 1013 4119 1484 4856
L 1984 4856
z
" transform="scale(0.015625)"/>
       <path id="DejaVuSans-73" d="M 2834 3397
L 2834 2853
Q 2591 2978 2328 3040
Q 2066 3103 1784 3103
Q 1356 3103 1142 2972
Q 928 2841 928 2578
Q 928 2378 1081 2264
Q 1234 2150 1697 2047
L 1894 2003
Q 2506 1872 2764 1633
Q 3022 1394 3022 966
Q 3022 478 2636 193
Q 2250 -91 1575 -91
Q 1294 -91 989 -36
Q 684 19 347 128
L 347 722
Q 666 556 975 473
Q 1284 391 1588 391
Q 1994 391 2212 530
Q 2431 669 2431 922
Q 2431 1156 2273 1281
Q 2116 1406 1581 1522
L 1381 1569
Q 847 1681 609 1914
Q 372 2147 372 2553
Q 372 3047 722 3315
Q 1072 3584 1716 3584
Q 2034 3584 2315 3537
Q 2597 3491 2834 3397
z
" transform="scale(0.015625)"/>
       <path id="DejaVuSans-61" d="M 2194 1759
Q 1497 1759 1228 1600
Q 959 1441 959 1056
Q 959 750 1161 570
Q 1363 391 1709 391
Q 2188 391 2477 730
Q 2766 1069 2766 1631
L 2766 1759
L 2194 1759
z
M 3341 1997
L 3341 0
L 2766 0
L 2766 531
Q 2569 213 2275 61
Q 1981 -91 1556 -91
Q 1019 -91 701 211
Q 384 513 384 1019
Q 384 1609 779 1909
Q 1175 2209 1959 2209
L 2766 2209
L 2766 2266
Q 2766 2663 2505 2880
Q 2244 3097 1772 3097
Q 1472 3097 1187 3025
Q 903 2953 641 2809
L 641 3341
Q 956 3463 1253 3523
Q 1550 3584 1831 3584
Q 2591 3584 2966 3190
Q 3341 2797 3341 1997
z
" transform="scale(0.015625)"/>
       <path id="DejaVuSans-76" d="M 191 3500
L 800 3500
L 1894 563
L 2988 3500
L 3597 3500
L 2284 0
L 1503 0
L 191 3500
z
" transform="scale(0.015625)"/>
       <path id="DejaVuSans-65" d="M 3597 1894
L 3597 1613
L 953 1613
Q 991 1019 1311 708
Q 1631 397 2203 397
Q 2534 397 2845 478
Q 3156 559 3463 722
L 3463 178
Q 3153 47 2828 -22
Q 2503 -91 2169 -91
Q 1331 -91 842 396
Q 353 884 353 1716
Q 353 2575 817 3079
Q 1281 3584 2069 3584
Q 2775 3584 3186 3129
Q 3597 2675 3597 1894
z
M 3022 2063
Q 3016 2534 2758 2815
Q 2500 3097 2075 3097
Q 1594 3097 1305 2825
Q 1016 2553 972 2059
L 3022 2063
z
" transform="scale(0.015625)"/>
       <path id="DejaVuSans-64" d="M 2906 2969
L 2906 4863
L 3481 4863
L 3481 0
L 2906 0
L 2906 525
Q 2725 213 2448 61
Q 2172 -91 1784 -91
Q 1150 -91 751 415
Q 353 922 353 1747
Q 353 2572 751 3078
Q 1150 3584 1784 3584
Q 2172 3584 2448 3432
Q 2725 3281 2906 2969
z
M 947 1747
Q 947 1113 1208 752
Q 1469 391 1925 391
Q 2381 391 2643 752
Q 2906 1113 2906 1747
Q 2906 2381 2643 2742
Q 2381 3103 1925 3103
Q 1469 3103 1208 2742
Q 947 2381 947 1747
z
" transform="scale(0.015625)"/>
       <path id="DejaVuSans-20" transform="scale(0.015625)"/>
       <path id="DejaVuSans-46" d="M 628 4666
L 3309 4666
L 3309 4134
L 1259 4134
L 1259 2759
L 3109 2759
L 3109 2228
L 1259 2228
L 1259 0
L 628 0
L 628 4666
z
" transform="scale(0.015625)"/>
       <path id="DejaVuSans-41" d="M 2188 4044
L 1331 1722
L 3047 1722
L 2188 4044
z
M 1831 4666
L 2547 4666
L 4325 0
L 3669 0
L 3244 1197
L 1141 1197
L 716 0
L 50 0
L 1831 4666
z
" transform="scale(0.015625)"/>
       <path id="DejaVuSans-49" d="M 628 4666
L 1259 4666
L 1259 0
L 628 0
L 628 4666
z
" transform="scale(0.015625)"/>
       <path id="DejaVuSans-52" d="M 2841 2188
Q 3044 2119 3236 1894
Q 3428 1669 3622 1275
L 4263 0
L 3584 0
L 2988 1197
Q 2756 1666 2539 1819
Q 2322 1972 1947 1972
L 1259 1972
L 1259 0
L 628 0
L 628 4666
L 2053 4666
Q 2853 4666 3247 4331
Q 3641 3997 3641 3322
Q 3641 2881 3436 2590
Q 3231 2300 2841 2188
z
M 1259 4147
L 1259 2491
L 2053 2491
Q 2509 2491 2742 2702
Q 2975 2913 2975 3322
Q 2975 3731 2742 3939
Q 2509 4147 2053 4147
L 1259 4147
z
" transform="scale(0.015625)"/>
       <path id="DejaVuSans-72" d="M 2631 2963
Q 2534 3019 2420 3045
Q 2306 3072 2169 3072
Q 1681 3072 1420 2755
Q 1159 2438 1159 1844
L 1159 0
L 581 0
L 581 3500
L 1159 3500
L 1159 2956
Q 1341 3275 1631 3429
Q 1922 3584 2338 3584
Q 2397 3584 2469 3576
Q 2541 3569 2628 3553
L 2631 2963
z
" transform="scale(0.015625)"/>
       <path id="DejaVuSans-74" d="M 1172 4494
L 1172 3500
L 2356 3500
L 2356 3053
L 1172 3053
L 1172 1153
Q 1172 725 1289 603
Q 1406 481 1766 481
L 2356 481
L 2356 0
L 1766 0
Q 1100 0 847 248
Q 594 497 594 1153
L 594 3053
L 172 3053
L 172 3500
L 594 3500
L 594 4494
L 1172 4494
z
" transform="scale(0.015625)"/>
       <path id="DejaVuSans-69" d="M 603 3500
L 1178 3500
L 1178 0
L 603 0
L 603 3500
z
M 603 4863
L 1178 4863
L 1178 4134
L 603 4134
L 603 4863
z
" transform="scale(0.015625)"/>
       <path id="DejaVuSans-6f" d="M 1959 3097
Q 1497 3097 1228 2736
Q 959 2375 959 1747
Q 959 1119 1226 758
Q 1494 397 1959 397
Q 2419 397 2687 759
Q 2956 1122 2956 1747
Q 2956 2369 2687 2733
Q 2419 3097 1959 3097
z
M 1959 3584
Q 2709 3584 3137 3096
Q 3566 2609 3566 1747
Q 3566 888 3137 398
Q 2709 -91 1959 -91
Q 1206 -91 779 398
Q 353 888 353 1747
Q 353 2609 779 3096
Q 1206 3584 1959 3584
z
" transform="scale(0.015625)"/>
       <path id="DejaVuSans-75" d="M 544 1381
L 544 3500
L 1119 3500
L 1119 1403
Q 1119 906 1312 657
Q 1506 409 1894 409
Q 2359 409 2629 706
Q 2900 1003 2900 1516
L 2900 3500
L 3475 3500
L 3475 0
L 2900 0
L 2900 538
Q 2691 219 2414 64
Q 2138 -91 1772 -91
Q 1169 -91 856 284
Q 544 659 544 1381
z
M 1991 3584
L 1991 3584
z
" transform="scale(0.015625)"/>
       <path id="DejaVuSans-6e" d="M 3513 2113
L 3513 0
L 2938 0
L 2938 2094
Q 2938 2591 2744 2837
Q 2550 3084 2163 3084
Q 1697 3084 1428 2787
Q 1159 2491 1159 1978
L 1159 0
L 581 0
L 581 3500
L 1159 3500
L 1159 2956
Q 1366 3272 1645 3428
Q 1925 3584 2291 3584
Q 2894 3584 3203 3211
Q 3513 2838 3513 2113
z
" transform="scale(0.015625)"/>
       <path id="DejaVuSans-2d" d="M 313 2009
L 1997 2009
L 1997 1497
L 313 1497
L 313 2009
z
" transform="scale(0.015625)"/>
       <path id="DejaVuSans-66" d="M 2375 4863
L 2375 4384
L 1825 4384
Q 1516 4384 1395 4259
Q 1275 4134 1275 3809
L 1275 3500
L 2222 3500
L 2222 3053
L 1275 3053
L 1275 0
L 697 0
L 697 3053
L 147 3053
L 147 3500
L 697 3500
L 697 3744
Q 697 4328 969 4595
Q 1241 4863 1831 4863
L 2375 4863
z
" transform="scale(0.015625)"/>
       <path id="DejaVuSans-63" d="M 3122 3366
L 3122 2828
Q 2878 2963 2633 3030
Q 2388 3097 2138 3097
Q 1578 3097 1268 2742
Q 959 2388 959 1747
Q 959 1106 1268 751
Q 1578 397 2138 397
Q 2388 397 2633 464
Q 2878 531 3122 666
L 3122 134
Q 2881 22 2623 -34
Q 2366 -91 2075 -91
Q 1284 -91 818 406
Q 353 903 353 1747
Q 353 2603 823 3093
Q 1294 3584 2113 3584
Q 2378 3584 2631 3529
Q 2884 3475 3122 3366
z
" transform="scale(0.015625)"/>
       <path id="DejaVuSans-4d" d="M 628 4666
L 1569 4666
L 2759 1491
L 3956 4666
L 4897 4666
L 4897 0
L 4281 0
L 4281 4097
L 3078 897
L 2444 897
L 1241 4097
L 1241 0
L 628 0
L 628 4666
z
" transform="scale(0.015625)"/>
       <path id="DejaVuSans-43" d="M 4122 4306
L 4122 3641
Q 3803 3938 3442 4084
Q 3081 4231 2675 4231
Q 1875 4231 1450 3742
Q 1025 3253 1025 2328
Q 1025 1406 1450 917
Q 1875 428 2675 428
Q 3081 428 3442 575
Q 3803 722 4122 1019
L 4122 359
Q 3791 134 3420 21
Q 3050 -91 2638 -91
Q 1578 -91 968 557
Q 359 1206 359 2328
Q 359 3453 968 4101
Q 1578 4750 2638 4750
Q 3056 4750 3426 4639
Q 3797 4528 4122 4306
z
" transform="scale(0.015625)"/>
       <path id="DejaVuSans-29" d="M 513 4856
L 1013 4856
Q 1481 4119 1714 3412
Q 1947 2706 1947 2009
Q 1947 1309 1714 600
Q 1481 -109 1013 -844
L 513 -844
Q 928 -128 1133 580
Q 1338 1288 1338 2009
Q 1338 2731 1133 3434
Q 928 4138 513 4856
z
" transform="scale(0.015625)"/>
       <path id="DejaVuSans-d7" d="M 4488 3438
L 3059 2003
L 4488 575
L 4116 197
L 2681 1631
L 1247 197
L 878 575
L 2303 2003
L 878 3438
L 1247 3816
L 2681 2381
L 4116 3816
L 4488 3438
z
" transform="scale(0.015625)"/>
       <path id="DejaVuSans-31" d="M 794 531
L 1825 531
L 1825 4091
L 703 3866
L 703 4441
L 1819 4666
L 2450 4666
L 2450 531
L 3481 531
L 3481 0
L 794 0
L 794 531
z
" transform="scale(0.015625)"/>
       <path id="DejaVuSans-2c" d="M 750 794
L 1409 794
L 1409 256
L 897 -744
L 494 -744
L 750 256
L 750 794
z
" transform="scale(0.015625)"/>
      </defs>
      <use xlink:href="#DejaVuSans-28"/>
      <use xlink:href="#DejaVuSans-73" x="39.013672"/>
      <use xlink:href="#DejaVuSans-61" x="91.113281"/>
      <use xlink:href="#DejaVuSans-76" x="152.392578"/>
      <use xlink:href="#DejaVuSans-65" x="211.572266"/>
      <use xlink:href="#DejaVuSans-64" x="273.095703"/>
      <use xlink:href="#DejaVuSans-20" x="336.572266"/>
      <use xlink:href="#DejaVuSans-46" x="368.359375"/>
      <use xlink:href="#DejaVuSans-41" x="416.753906"/>
      <use xlink:href="#DejaVuSans-49" x="485.162109"/>
      <use xlink:href="#DejaVuSans-52" x="514.654297"/>
      <use xlink:href="#DejaVuSans-20" x="584.136719"/>
      <use xlink:href="#DejaVuSans-72" x="615.923828"/>
      <use xlink:href="#DejaVuSans-61" x="657.037109"/>
      <use xlink:href="#DejaVuSans-74" x="718.316406"/>
      <use xlink:href="#DejaVuSans-69" x="757.525391"/>
      <use xlink:href="#DejaVuSans-6f" x="785.308594"/>
      <use xlink:href="#DejaVuSans-20" x="846.490234"/>
      <use xlink:href="#DejaVuSans-2212" x="878.277344"/>
      <use xlink:href="#DejaVuSans-20" x="962.066406"/>
      <use xlink:href="#DejaVuSans-75" x="993.853516"/>
      <use xlink:href="#DejaVuSans-6e" x="1057.232422"/>
      <use xlink:href="#DejaVuSans-69" x="1120.611328"/>
      <use xlink:href="#DejaVuSans-74" x="1148.394531"/>
      <use xlink:href="#DejaVuSans-2d" x="1187.603516"/>
      <use xlink:href="#DejaVuSans-66" x="1223.6875"/>
      <use xlink:href="#DejaVuSans-61" x="1258.892578"/>
      <use xlink:href="#DejaVuSans-63" x="1320.171875"/>
      <use xlink:href="#DejaVuSans-65" x="1375.152344"/>
      <use xlink:href="#DejaVuSans-20" x="1436.675781"/>
      <use xlink:href="#DejaVuSans-4d" x="1468.462891"/>
      <use xlink:href="#DejaVuSans-43" x="1554.742188"/>
      <use xlink:href="#DejaVuSans-20" x="1624.566406"/>
      <use xlink:href="#DejaVuSans-72" x="1656.353516"/>
      <use xlink:href="#DejaVuSans-61" x="1697.466797"/>
      <use xlink:href="#DejaVuSans-74" x="1758.746094"/>
      <use xlink:href="#DejaVuSans-69" x="1797.955078"/>
      <use xlink:href="#DejaVuSans-6f" x="1825.738281"/>
      <use xlink:href="#DejaVuSans-29" x="1886.919922"/>
      <use xlink:href="#DejaVuSans-20" x="1925.933594"/>
      <use xlink:href="#DejaVuSans-d7" x="1957.720703"/>
      <use xlink:href="#DejaVuSans-20" x="2041.509766"/>
      <use xlink:href="#DejaVuSans-31" x="2073.296875"/>
      <use xlink:href="#DejaVuSans-30" x="2136.919922"/>
      <use xlink:href="#DejaVuSans-2c" x="2200.542969"/>
      <use xlink:href="#DejaVuSans-30" x="2232.330078"/>
      <use xlink:href="#DejaVuSans-30" x="2295.953125"/>
      <use xlink:href="#DejaVuSans-30" x="2359.576172"/>
     </g>
    </g>
   </g>
   <g id="matplotlib.axis_2">
    <g id="ytick_1">
     <g id="line2d_5">
      <path d="M 56.840938 296.389937
L 883.470937 296.389937
" clip-path="url(#p3983963bb0)" style="fill: none; stroke: #b0b0b0; stroke-opacity: 0.2; stroke-width: 0.8; stroke-linecap: square"/>
     </g>
     <g id="line2d_6">
      <defs>
       <path id="m53fa8bc485" d="M 0 0
L -3.5 0
" style="stroke: #000000; stroke-width: 0.8"/>
      </defs>
      <g>
       <use xlink:href="#m53fa8bc485" x="56.840938" y="296.389937" style="stroke: #000000; stroke-width: 0.8"/>
      </g>
     </g>
     <g id="text_6">
      <!-- 0 -->
      <g transform="translate(42.842188 300.569078) scale(0.11 -0.11)">
       <use xlink:href="#DejaVuSans-30"/>
      </g>
     </g>
    </g>
    <g id="ytick_2">
     <g id="line2d_7">
      <path d="M 56.840938 239.575703
L 883.470937 239.575703
" clip-path="url(#p3983963bb0)" style="fill: none; stroke: #b0b0b0; stroke-opacity: 0.2; stroke-width: 0.8; stroke-linecap: square"/>
     </g>
     <g id="line2d_8">
      <g>
       <use xlink:href="#m53fa8bc485" x="56.840938" y="239.575703" style="stroke: #000000; stroke-width: 0.8"/>
      </g>
     </g>
     <g id="text_7">
      <!-- 1000 -->
      <g transform="translate(21.845938 243.754843) scale(0.11 -0.11)">
       <use xlink:href="#DejaVuSans-31"/>
       <use xlink:href="#DejaVuSans-30" x="63.623047"/>
       <use xlink:href="#DejaVuSans-30" x="127.246094"/>
       <use xlink:href="#DejaVuSans-30" x="190.869141"/>
      </g>
     </g>
    </g>
    <g id="ytick_3">
     <g id="line2d_9">
      <path d="M 56.840938 182.761468
L 883.470937 182.761468
" clip-path="url(#p3983963bb0)" style="fill: none; stroke: #b0b0b0; stroke-opacity: 0.2; stroke-width: 0.8; stroke-linecap: square"/>
     </g>
     <g id="line2d_10">
      <g>
       <use xlink:href="#m53fa8bc485" x="56.840938" y="182.761468" style="stroke: #000000; stroke-width: 0.8"/>
      </g>
     </g>
     <g id="text_8">
      <!-- 2000 -->
      <g transform="translate(21.845938 186.940609) scale(0.11 -0.11)">
       <use xlink:href="#DejaVuSans-32"/>
       <use xlink:href="#DejaVuSans-30" x="63.623047"/>
       <use xlink:href="#DejaVuSans-30" x="127.246094"/>
       <use xlink:href="#DejaVuSans-30" x="190.869141"/>
      </g>
     </g>
    </g>
    <g id="ytick_4">
     <g id="line2d_11">
      <path d="M 56.840938 125.947233
L 883.470937 125.947233
" clip-path="url(#p3983963bb0)" style="fill: none; stroke: #b0b0b0; stroke-opacity: 0.2; stroke-width: 0.8; stroke-linecap: square"/>
     </g>
     <g id="line2d_12">
      <g>
       <use xlink:href="#m53fa8bc485" x="56.840938" y="125.947233" style="stroke: #000000; stroke-width: 0.8"/>
      </g>
     </g>
     <g id="text_9">
      <!-- 3000 -->
      <g transform="translate(21.845938 130.126374) scale(0.11 -0.11)">
       <defs>
        <path id="DejaVuSans-33" d="M 2597 2516
Q 3050 2419 3304 2112
Q 3559 1806 3559 1356
Q 3559 666 3084 287
Q 2609 -91 1734 -91
Q 1441 -91 1130 -33
Q 819 25 488 141
L 488 750
Q 750 597 1062 519
Q 1375 441 1716 441
Q 2309 441 2620 675
Q 2931 909 2931 1356
Q 2931 1769 2642 2001
Q 2353 2234 1838 2234
L 1294 2234
L 1294 2753
L 1863 2753
Q 2328 2753 2575 2939
Q 2822 3125 2822 3475
Q 2822 3834 2567 4026
Q 2313 4219 1838 4219
Q 1578 4219 1281 4162
Q 984 4106 628 3988
L 628 4550
Q 988 4650 1302 4700
Q 1616 4750 1894 4750
Q 2613 4750 3031 4423
Q 3450 4097 3450 3541
Q 3450 3153 3228 2886
Q 3006 2619 2597 2516
z
" transform="scale(0.015625)"/>
       </defs>
       <use xlink:href="#DejaVuSans-33"/>
       <use xlink:href="#DejaVuSans-30" x="63.623047"/>
       <use xlink:href="#DejaVuSans-30" x="127.246094"/>
       <use xlink:href="#DejaVuSans-30" x="190.869141"/>
      </g>
     </g>
    </g>
    <g id="ytick_5">
     <g id="line2d_13">
      <path d="M 56.840938 69.132998
L 883.470937 69.132998
" clip-path="url(#p3983963bb0)" style="fill: none; stroke: #b0b0b0; stroke-opacity: 0.2; stroke-width: 0.8; stroke-linecap: square"/>
     </g>
     <g id="line2d_14">
      <g>
       <use xlink:href="#m53fa8bc485" x="56.840938" y="69.132998" style="stroke: #000000; stroke-width: 0.8"/>
      </g>
     </g>
     <g id="text_10">
      <!-- 4000 -->
      <g transform="translate(21.845938 73.312139) scale(0.11 -0.11)">
       <use xlink:href="#DejaVuSans-34"/>
       <use xlink:href="#DejaVuSans-30" x="63.623047"/>
       <use xlink:href="#DejaVuSans-30" x="127.246094"/>
       <use xlink:href="#DejaVuSans-30" x="190.869141"/>
      </g>
     </g>
    </g>
    <g id="text_11">
     <!-- Number of products -->
     <g transform="translate(15.558281 214.718844) rotate(-90) scale(0.11 -0.11)">
      <defs>
       <path id="DejaVuSans-4e" d="M 628 4666
L 1478 4666
L 3547 763
L 3547 4666
L 4159 4666
L 4159 0
L 3309 0
L 1241 3903
L 1241 0
L 628 0
L 628 4666
z
" transform="scale(0.015625)"/>
       <path id="DejaVuSans-6d" d="M 3328 2828
Q 3544 3216 3844 3400
Q 4144 3584 4550 3584
Q 5097 3584 5394 3201
Q 5691 2819 5691 2113
L 5691 0
L 5113 0
L 5113 2094
Q 5113 2597 4934 2840
Q 4756 3084 4391 3084
Q 3944 3084 3684 2787
Q 3425 2491 3425 1978
L 3425 0
L 2847 0
L 2847 2094
Q 2847 2600 2669 2842
Q 2491 3084 2119 3084
Q 1678 3084 1418 2786
Q 1159 2488 1159 1978
L 1159 0
L 581 0
L 581 3500
L 1159 3500
L 1159 2956
Q 1356 3278 1631 3431
Q 1906 3584 2284 3584
Q 2666 3584 2933 3390
Q 3200 3197 3328 2828
z
" transform="scale(0.015625)"/>
       <path id="DejaVuSans-62" d="M 3116 1747
Q 3116 2381 2855 2742
Q 2594 3103 2138 3103
Q 1681 3103 1420 2742
Q 1159 2381 1159 1747
Q 1159 1113 1420 752
Q 1681 391 2138 391
Q 2594 391 2855 752
Q 3116 1113 3116 1747
z
M 1159 2969
Q 1341 3281 1617 3432
Q 1894 3584 2278 3584
Q 2916 3584 3314 3078
Q 3713 2572 3713 1747
Q 3713 922 3314 415
Q 2916 -91 2278 -91
Q 1894 -91 1617 61
Q 1341 213 1159 525
L 1159 0
L 581 0
L 581 4863
L 1159 4863
L 1159 2969
z
" transform="scale(0.015625)"/>
       <path id="DejaVuSans-70" d="M 1159 525
L 1159 -1331
L 581 -1331
L 581 3500
L 1159 3500
L 1159 2969
Q 1341 3281 1617 3432
Q 1894 3584 2278 3584
Q 2916 3584 3314 3078
Q 3713 2572 3713 1747
Q 3713 922 3314 415
Q 2916 -91 2278 -91
Q 1894 -91 1617 61
Q 1341 213 1159 525
z
M 3116 1747
Q 3116 2381 2855 2742
Q 2594 3103 2138 3103
Q 1681 3103 1420 2742
Q 1159 2381 1159 1747
Q 1159 1113 1420 752
Q 1681 391 2138 391
Q 2594 391 2855 752
Q 3116 1113 3116 1747
z
" transform="scale(0.015625)"/>
      </defs>
      <use xlink:href="#DejaVuSans-4e"/>
      <use xlink:href="#DejaVuSans-75" x="74.804688"/>
      <use xlink:href="#DejaVuSans-6d" x="138.183594"/>
      <use xlink:href="#DejaVuSans-62" x="235.595703"/>
      <use xlink:href="#DejaVuSans-65" x="299.072266"/>
      <use xlink:href="#DejaVuSans-72" x="360.595703"/>
      <use xlink:href="#DejaVuSans-20" x="401.708984"/>
      <use xlink:href="#DejaVuSans-6f" x="433.496094"/>
      <use xlink:href="#DejaVuSans-66" x="494.677734"/>
      <use xlink:href="#DejaVuSans-20" x="529.882812"/>
      <use xlink:href="#DejaVuSans-70" x="561.669922"/>
      <use xlink:href="#DejaVuSans-72" x="625.146484"/>
      <use xlink:href="#DejaVuSans-6f" x="664.009766"/>
      <use xlink:href="#DejaVuSans-64" x="725.191406"/>
      <use xlink:href="#DejaVuSans-75" x="788.667969"/>
      <use xlink:href="#DejaVuSans-63" x="852.046875"/>
      <use xlink:href="#DejaVuSans-74" x="907.027344"/>
      <use xlink:href="#DejaVuSans-73" x="946.236328"/>
     </g>
    </g>
   </g>
   <g id="line2d_15">
    <path d="M 318.214227 296.389937
L 318.214227 23.229937
" clip-path="url(#p3983963bb0)" style="fill: none; stroke: #e07a5f; stroke-width: 1.6; stroke-linecap: square"/>
   </g>
   <g id="line2d_16">
    <path d="M 313.88255 296.389937
L 313.88255 23.229937
" clip-path="url(#p3983963bb0)" style="fill: none; stroke-dasharray: 4.44,1.92; stroke-dashoffset: 0; stroke: #c0392b; stroke-width: 1.2"/>
   </g>
   <g id="line2d_17">
    <path d="M 365.030486 296.389937
L 365.030486 23.229937
" clip-path="url(#p3983963bb0)" style="fill: none; stroke-dasharray: 1,1.65; stroke-dashoffset: 0; stroke: #555555"/>
   </g>
   <g id="patch_93">
    <path d="M 56.840938 296.389937
L 56.840938 23.229937
" style="fill: none; stroke: #000000; stroke-width: 0.8; stroke-linejoin: miter; stroke-linecap: square"/>
   </g>
   <g id="patch_94">
    <path d="M 56.840937 296.389937
L 883.470937 296.389937
" style="fill: none; stroke: #000000; stroke-width: 0.8; stroke-linejoin: miter; stroke-linecap: square"/>
   </g>
   <g id="text_12">
    <!-- IV MC, 58,790 products; 40,000 paths -->
    <g transform="translate(329.721344 17.229937) scale(0.132 -0.132)">
     <defs>
      <path id="DejaVuSans-Bold-49" d="M 588 4666
L 1791 4666
L 1791 0
L 588 0
L 588 4666
z
" transform="scale(0.015625)"/>
      <path id="DejaVuSans-Bold-56" d="M 31 4666
L 1241 4666
L 2478 1222
L 3713 4666
L 4922 4666
L 3194 0
L 1759 0
L 31 4666
z
" transform="scale(0.015625)"/>
      <path id="DejaVuSans-Bold-20" transform="scale(0.015625)"/>
      <path id="DejaVuSans-Bold-4d" d="M 588 4666
L 2119 4666
L 3181 2169
L 4250 4666
L 5778 4666
L 5778 0
L 4641 0
L 4641 3413
L 3566 897
L 2803 897
L 1728 3413
L 1728 0
L 588 0
L 588 4666
z
" transform="scale(0.015625)"/>
      <path id="DejaVuSans-Bold-43" d="M 4288 256
Q 3956 84 3597 -3
Q 3238 -91 2847 -91
Q 1681 -91 1000 561
Q 319 1213 319 2328
Q 319 3447 1000 4098
Q 1681 4750 2847 4750
Q 3238 4750 3597 4662
Q 3956 4575 4288 4403
L 4288 3438
Q 3953 3666 3628 3772
Q 3303 3878 2944 3878
Q 2300 3878 1931 3465
Q 1563 3053 1563 2328
Q 1563 1606 1931 1193
Q 2300 781 2944 781
Q 3303 781 3628 887
Q 3953 994 4288 1222
L 4288 256
z
" transform="scale(0.015625)"/>
      <path id="DejaVuSans-Bold-2c" d="M 653 1209
L 1778 1209
L 1778 256
L 1006 -909
L 341 -909
L 653 256
L 653 1209
z
" transform="scale(0.015625)"/>
      <path id="DejaVuSans-Bold-35" d="M 678 4666
L 3669 4666
L 3669 3781
L 1638 3781
L 1638 3059
Q 1775 3097 1914 3117
Q 2053 3138 2203 3138
Q 3056 3138 3531 2711
Q 4006 2284 4006 1522
Q 4006 766 3489 337
Q 2972 -91 2053 -91
Q 1656 -91 1267 -14
Q 878 63 494 219
L 494 1166
Q 875 947 1217 837
Q 1559 728 1863 728
Q 2300 728 2551 942
Q 2803 1156 2803 1522
Q 2803 1891 2551 2103
Q 2300 2316 1863 2316
Q 1603 2316 1309 2248
Q 1016 2181 678 2041
L 678 4666
z
" transform="scale(0.015625)"/>
      <path id="DejaVuSans-Bold-38" d="M 2228 2088
Q 1891 2088 1709 1903
Q 1528 1719 1528 1375
Q 1528 1031 1709 848
Q 1891 666 2228 666
Q 2563 666 2741 848
Q 2919 1031 2919 1375
Q 2919 1722 2741 1905
Q 2563 2088 2228 2088
z
M 1350 2484
Q 925 2613 709 2878
Q 494 3144 494 3541
Q 494 4131 934 4440
Q 1375 4750 2228 4750
Q 3075 4750 3515 4442
Q 3956 4134 3956 3541
Q 3956 3144 3739 2878
Q 3522 2613 3097 2484
Q 3572 2353 3814 2058
Q 4056 1763 4056 1313
Q 4056 619 3595 264
Q 3134 -91 2228 -91
Q 1319 -91 855 264
Q 391 619 391 1313
Q 391 1763 633 2058
Q 875 2353 1350 2484
z
M 1631 3419
Q 1631 3141 1786 2991
Q 1941 2841 2228 2841
Q 2509 2841 2662 2991
Q 2816 3141 2816 3419
Q 2816 3697 2662 3845
Q 2509 3994 2228 3994
Q 1941 3994 1786 3844
Q 1631 3694 1631 3419
z
" transform="scale(0.015625)"/>
      <path id="DejaVuSans-Bold-37" d="M 428 4666
L 3944 4666
L 3944 3988
L 2125 0
L 953 0
L 2675 3781
L 428 3781
L 428 4666
z
" transform="scale(0.015625)"/>
      <path id="DejaVuSans-Bold-39" d="M 641 103
L 641 966
Q 928 831 1190 764
Q 1453 697 1709 697
Q 2247 697 2547 995
Q 2847 1294 2900 1881
Q 2688 1725 2447 1647
Q 2206 1569 1925 1569
Q 1209 1569 770 1986
Q 331 2403 331 3084
Q 331 3838 820 4291
Q 1309 4744 2131 4744
Q 3044 4744 3544 4128
Q 4044 3513 4044 2388
Q 4044 1231 3459 570
Q 2875 -91 1856 -91
Q 1528 -91 1228 -42
Q 928 6 641 103
z
M 2125 2350
Q 2441 2350 2600 2554
Q 2759 2759 2759 3169
Q 2759 3575 2600 3781
Q 2441 3988 2125 3988
Q 1809 3988 1650 3781
Q 1491 3575 1491 3169
Q 1491 2759 1650 2554
Q 1809 2350 2125 2350
z
" transform="scale(0.015625)"/>
      <path id="DejaVuSans-Bold-30" d="M 2944 2338
Q 2944 3213 2780 3570
Q 2616 3928 2228 3928
Q 1841 3928 1675 3570
Q 1509 3213 1509 2338
Q 1509 1453 1675 1090
Q 1841 728 2228 728
Q 2613 728 2778 1090
Q 2944 1453 2944 2338
z
M 4147 2328
Q 4147 1169 3647 539
Q 3147 -91 2228 -91
Q 1306 -91 806 539
Q 306 1169 306 2328
Q 306 3491 806 4120
Q 1306 4750 2228 4750
Q 3147 4750 3647 4120
Q 4147 3491 4147 2328
z
" transform="scale(0.015625)"/>
      <path id="DejaVuSans-Bold-70" d="M 1656 506
L 1656 -1331
L 538 -1331
L 538 3500
L 1656 3500
L 1656 2988
Q 1888 3294 2169 3439
Q 2450 3584 2816 3584
Q 3463 3584 3878 3070
Q 4294 2556 4294 1747
Q 4294 938 3878 423
Q 3463 -91 2816 -91
Q 2450 -91 2169 54
Q 1888 200 1656 506
z
M 2400 2772
Q 2041 2772 1848 2508
Q 1656 2244 1656 1747
Q 1656 1250 1848 986
Q 2041 722 2400 722
Q 2759 722 2948 984
Q 3138 1247 3138 1747
Q 3138 2247 2948 2509
Q 2759 2772 2400 2772
z
" transform="scale(0.015625)"/>
      <path id="DejaVuSans-Bold-72" d="M 3138 2547
Q 2991 2616 2845 2648
Q 2700 2681 2553 2681
Q 2122 2681 1889 2404
Q 1656 2128 1656 1613
L 1656 0
L 538 0
L 538 3500
L 1656 3500
L 1656 2925
Q 1872 3269 2151 3426
Q 2431 3584 2822 3584
Q 2878 3584 2943 3579
Q 3009 3575 3134 3559
L 3138 2547
z
" transform="scale(0.015625)"/>
      <path id="DejaVuSans-Bold-6f" d="M 2203 2784
Q 1831 2784 1636 2517
Q 1441 2250 1441 1747
Q 1441 1244 1636 976
Q 1831 709 2203 709
Q 2569 709 2762 976
Q 2956 1244 2956 1747
Q 2956 2250 2762 2517
Q 2569 2784 2203 2784
z
M 2203 3584
Q 3106 3584 3614 3096
Q 4122 2609 4122 1747
Q 4122 884 3614 396
Q 3106 -91 2203 -91
Q 1297 -91 786 396
Q 275 884 275 1747
Q 275 2609 786 3096
Q 1297 3584 2203 3584
z
" transform="scale(0.015625)"/>
      <path id="DejaVuSans-Bold-64" d="M 2919 2988
L 2919 4863
L 4044 4863
L 4044 0
L 2919 0
L 2919 506
Q 2688 197 2409 53
Q 2131 -91 1766 -91
Q 1119 -91 703 423
Q 288 938 288 1747
Q 288 2556 703 3070
Q 1119 3584 1766 3584
Q 2128 3584 2408 3439
Q 2688 3294 2919 2988
z
M 2181 722
Q 2541 722 2730 984
Q 2919 1247 2919 1747
Q 2919 2247 2730 2509
Q 2541 2772 2181 2772
Q 1825 2772 1636 2509
Q 1447 2247 1447 1747
Q 1447 1247 1636 984
Q 1825 722 2181 722
z
" transform="scale(0.015625)"/>
      <path id="DejaVuSans-Bold-75" d="M 500 1363
L 500 3500
L 1625 3500
L 1625 3150
Q 1625 2866 1622 2436
Q 1619 2006 1619 1863
Q 1619 1441 1641 1255
Q 1663 1069 1716 984
Q 1784 875 1895 815
Q 2006 756 2150 756
Q 2500 756 2700 1025
Q 2900 1294 2900 1772
L 2900 3500
L 4019 3500
L 4019 0
L 2900 0
L 2900 506
Q 2647 200 2364 54
Q 2081 -91 1741 -91
Q 1134 -91 817 281
Q 500 653 500 1363
z
" transform="scale(0.015625)"/>
      <path id="DejaVuSans-Bold-63" d="M 3366 3391
L 3366 2478
Q 3138 2634 2908 2709
Q 2678 2784 2431 2784
Q 1963 2784 1702 2511
Q 1441 2238 1441 1747
Q 1441 1256 1702 982
Q 1963 709 2431 709
Q 2694 709 2930 787
Q 3166 866 3366 1019
L 3366 103
Q 3103 6 2833 -42
Q 2563 -91 2291 -91
Q 1344 -91 809 395
Q 275 881 275 1747
Q 275 2613 809 3098
Q 1344 3584 2291 3584
Q 2566 3584 2833 3536
Q 3100 3488 3366 3391
z
" transform="scale(0.015625)"/>
      <path id="DejaVuSans-Bold-74" d="M 1759 4494
L 1759 3500
L 2913 3500
L 2913 2700
L 1759 2700
L 1759 1216
Q 1759 972 1856 886
Q 1953 800 2241 800
L 2816 800
L 2816 0
L 1856 0
Q 1194 0 917 276
Q 641 553 641 1216
L 641 2700
L 84 2700
L 84 3500
L 641 3500
L 641 4494
L 1759 4494
z
" transform="scale(0.015625)"/>
      <path id="DejaVuSans-Bold-73" d="M 3272 3391
L 3272 2541
Q 2913 2691 2578 2766
Q 2244 2841 1947 2841
Q 1628 2841 1473 2761
Q 1319 2681 1319 2516
Q 1319 2381 1436 2309
Q 1553 2238 1856 2203
L 2053 2175
Q 2913 2066 3209 1816
Q 3506 1566 3506 1031
Q 3506 472 3093 190
Q 2681 -91 1863 -91
Q 1516 -91 1145 -36
Q 775 19 384 128
L 384 978
Q 719 816 1070 734
Q 1422 653 1784 653
Q 2113 653 2278 743
Q 2444 834 2444 1013
Q 2444 1163 2330 1236
Q 2216 1309 1875 1350
L 1678 1375
Q 931 1469 631 1722
Q 331 1975 331 2491
Q 331 3047 712 3315
Q 1094 3584 1881 3584
Q 2191 3584 2531 3537
Q 2872 3491 3272 3391
z
" transform="scale(0.015625)"/>
      <path id="DejaVuSans-Bold-3b" d="M 716 1209
L 1844 1209
L 1844 256
L 1069 -909
L 403 -909
L 716 256
L 716 1209
z
M 716 3500
L 1844 3500
L 1844 2291
L 716 2291
L 716 3500
z
" transform="scale(0.015625)"/>
      <path id="DejaVuSans-Bold-34" d="M 2356 3675
L 1038 1722
L 2356 1722
L 2356 3675
z
M 2156 4666
L 3494 4666
L 3494 1722
L 4159 1722
L 4159 850
L 3494 850
L 3494 0
L 2356 0
L 2356 850
L 288 850
L 288 1881
L 2156 4666
z
" transform="scale(0.015625)"/>
      <path id="DejaVuSans-Bold-61" d="M 2106 1575
Q 1756 1575 1579 1456
Q 1403 1338 1403 1106
Q 1403 894 1545 773
Q 1688 653 1941 653
Q 2256 653 2472 879
Q 2688 1106 2688 1447
L 2688 1575
L 2106 1575
z
M 3816 1997
L 3816 0
L 2688 0
L 2688 519
Q 2463 200 2181 54
Q 1900 -91 1497 -91
Q 953 -91 614 226
Q 275 544 275 1050
Q 275 1666 698 1953
Q 1122 2241 2028 2241
L 2688 2241
L 2688 2328
Q 2688 2594 2478 2717
Q 2269 2841 1825 2841
Q 1466 2841 1156 2769
Q 847 2697 581 2553
L 581 3406
Q 941 3494 1303 3539
Q 1666 3584 2028 3584
Q 2975 3584 3395 3211
Q 3816 2838 3816 1997
z
" transform="scale(0.015625)"/>
      <path id="DejaVuSans-Bold-68" d="M 4056 2131
L 4056 0
L 2931 0
L 2931 347
L 2931 1625
Q 2931 2084 2911 2256
Q 2891 2428 2841 2509
Q 2775 2619 2662 2680
Q 2550 2741 2406 2741
Q 2056 2741 1856 2470
Q 1656 2200 1656 1722
L 1656 0
L 538 0
L 538 4863
L 1656 4863
L 1656 2988
Q 1909 3294 2193 3439
Q 2478 3584 2822 3584
Q 3428 3584 3742 3212
Q 4056 2841 4056 2131
z
" transform="scale(0.015625)"/>
     </defs>
     <use xlink:href="#DejaVuSans-Bold-49"/>
     <use xlink:href="#DejaVuSans-Bold-56" x="37.207031"/>
     <use xlink:href="#DejaVuSans-Bold-20" x="114.599609"/>
     <use xlink:href="#DejaVuSans-Bold-4d" x="149.414062"/>
     <use xlink:href="#DejaVuSans-Bold-43" x="248.925781"/>
     <use xlink:href="#DejaVuSans-Bold-2c" x="322.314453"/>
     <use xlink:href="#DejaVuSans-Bold-20" x="360.302734"/>
     <use xlink:href="#DejaVuSans-Bold-35" x="395.117188"/>
     <use xlink:href="#DejaVuSans-Bold-38" x="464.697266"/>
     <use xlink:href="#DejaVuSans-Bold-2c" x="534.277344"/>
     <use xlink:href="#DejaVuSans-Bold-37" x="572.265625"/>
     <use xlink:href="#DejaVuSans-Bold-39" x="641.845703"/>
     <use xlink:href="#DejaVuSans-Bold-30" x="711.425781"/>
     <use xlink:href="#DejaVuSans-Bold-20" x="781.005859"/>
     <use xlink:href="#DejaVuSans-Bold-70" x="815.820312"/>
     <use xlink:href="#DejaVuSans-Bold-72" x="887.402344"/>
     <use xlink:href="#DejaVuSans-Bold-6f" x="936.71875"/>
     <use xlink:href="#DejaVuSans-Bold-64" x="1005.419922"/>
     <use xlink:href="#DejaVuSans-Bold-75" x="1077.001953"/>
     <use xlink:href="#DejaVuSans-Bold-63" x="1148.193359"/>
     <use xlink:href="#DejaVuSans-Bold-74" x="1207.470703"/>
     <use xlink:href="#DejaVuSans-Bold-73" x="1255.273438"/>
     <use xlink:href="#DejaVuSans-Bold-3b" x="1314.794922"/>
     <use xlink:href="#DejaVuSans-Bold-20" x="1354.785156"/>
     <use xlink:href="#DejaVuSans-Bold-34" x="1389.599609"/>
     <use xlink:href="#DejaVuSans-Bold-30" x="1459.179688"/>
     <use xlink:href="#DejaVuSans-Bold-2c" x="1528.759766"/>
     <use xlink:href="#DejaVuSans-Bold-30" x="1566.748047"/>
     <use xlink:href="#DejaVuSans-Bold-30" x="1636.328125"/>
     <use xlink:href="#DejaVuSans-Bold-30" x="1705.908203"/>
     <use xlink:href="#DejaVuSans-Bold-20" x="1775.488281"/>
     <use xlink:href="#DejaVuSans-Bold-70" x="1810.302734"/>
     <use xlink:href="#DejaVuSans-Bold-61" x="1881.884766"/>
     <use xlink:href="#DejaVuSans-Bold-74" x="1949.365234"/>
     <use xlink:href="#DejaVuSans-Bold-68" x="1997.167969"/>
     <use xlink:href="#DejaVuSans-Bold-73" x="2068.359375"/>
    </g>
   </g>
   <g id="legend_1">
    <g id="patch_95">
     <path d="M 642.417969 64.321812
L 875.770937 64.321812
Q 877.970937 64.321812 877.970937 62.121812
L 877.970937 30.929937
Q 877.970937 28.729938 875.770937 28.729938
L 642.417969 28.729938
Q 640.217969 28.729938 640.217969 30.929937
L 640.217969 62.121812
Q 640.217969 64.321812 642.417969 64.321812
z
" style="fill: #ffffff; opacity: 0.8; stroke: #cccccc; stroke-linejoin: miter"/>
    </g>
    <g id="patch_96">
     <path d="M 644.617969 41.488219
L 666.617969 41.488219
L 666.617969 33.788219
L 644.617969 33.788219
z
" style="fill: #e07a5f; opacity: 0.75; stroke: #ffffff; stroke-width: 0.2; stroke-linejoin: miter"/>
    </g>
    <g id="text_13">
     <!-- IV + source discount: mean -520.11 -->
     <g transform="translate(675.417969 41.488219) scale(0.11 -0.11)">
      <defs>
       <path id="DejaVuSans-56" d="M 1831 0
L 50 4666
L 709 4666
L 2188 738
L 3669 4666
L 4325 4666
L 2547 0
L 1831 0
z
" transform="scale(0.015625)"/>
       <path id="DejaVuSans-2b" d="M 2944 4013
L 2944 2272
L 4684 2272
L 4684 1741
L 2944 1741
L 2944 0
L 2419 0
L 2419 1741
L 678 1741
L 678 2272
L 2419 2272
L 2419 4013
L 2944 4013
z
" transform="scale(0.015625)"/>
       <path id="DejaVuSans-3a" d="M 750 794
L 1409 794
L 1409 0
L 750 0
L 750 794
z
M 750 3309
L 1409 3309
L 1409 2516
L 750 2516
L 750 3309
z
" transform="scale(0.015625)"/>
       <path id="DejaVuSans-35" d="M 691 4666
L 3169 4666
L 3169 4134
L 1269 4134
L 1269 2991
Q 1406 3038 1543 3061
Q 1681 3084 1819 3084
Q 2600 3084 3056 2656
Q 3513 2228 3513 1497
Q 3513 744 3044 326
Q 2575 -91 1722 -91
Q 1428 -91 1123 -41
Q 819 9 494 109
L 494 744
Q 775 591 1075 516
Q 1375 441 1709 441
Q 2250 441 2565 725
Q 2881 1009 2881 1497
Q 2881 1984 2565 2268
Q 2250 2553 1709 2553
Q 1456 2553 1204 2497
Q 953 2441 691 2322
L 691 4666
z
" transform="scale(0.015625)"/>
       <path id="DejaVuSans-2e" d="M 684 794
L 1344 794
L 1344 0
L 684 0
L 684 794
z
" transform="scale(0.015625)"/>
      </defs>
      <use xlink:href="#DejaVuSans-49"/>
      <use xlink:href="#DejaVuSans-56" x="29.492188"/>
      <use xlink:href="#DejaVuSans-20" x="97.900391"/>
      <use xlink:href="#DejaVuSans-2b" x="129.6875"/>
      <use xlink:href="#DejaVuSans-20" x="213.476562"/>
      <use xlink:href="#DejaVuSans-73" x="245.263672"/>
      <use xlink:href="#DejaVuSans-6f" x="297.363281"/>
      <use xlink:href="#DejaVuSans-75" x="358.544922"/>
      <use xlink:href="#DejaVuSans-72" x="421.923828"/>
      <use xlink:href="#DejaVuSans-63" x="460.787109"/>
      <use xlink:href="#DejaVuSans-65" x="515.767578"/>
      <use xlink:href="#DejaVuSans-20" x="577.291016"/>
      <use xlink:href="#DejaVuSans-64" x="609.078125"/>
      <use xlink:href="#DejaVuSans-69" x="672.554688"/>
      <use xlink:href="#DejaVuSans-73" x="700.337891"/>
      <use xlink:href="#DejaVuSans-63" x="752.4375"/>
      <use xlink:href="#DejaVuSans-6f" x="807.417969"/>
      <use xlink:href="#DejaVuSans-75" x="868.599609"/>
      <use xlink:href="#DejaVuSans-6e" x="931.978516"/>
      <use xlink:href="#DejaVuSans-74" x="995.357422"/>
      <use xlink:href="#DejaVuSans-3a" x="1034.566406"/>
      <use xlink:href="#DejaVuSans-20" x="1068.257812"/>
      <use xlink:href="#DejaVuSans-6d" x="1100.044922"/>
      <use xlink:href="#DejaVuSans-65" x="1197.457031"/>
      <use xlink:href="#DejaVuSans-61" x="1258.980469"/>
      <use xlink:href="#DejaVuSans-6e" x="1320.259766"/>
      <use xlink:href="#DejaVuSans-20" x="1383.638672"/>
      <use xlink:href="#DejaVuSans-2d" x="1415.425781"/>
      <use xlink:href="#DejaVuSans-35" x="1451.509766"/>
      <use xlink:href="#DejaVuSans-32" x="1515.132812"/>
      <use xlink:href="#DejaVuSans-30" x="1578.755859"/>
      <use xlink:href="#DejaVuSans-2e" x="1642.378906"/>
      <use xlink:href="#DejaVuSans-31" x="1674.166016"/>
      <use xlink:href="#DejaVuSans-31" x="1737.789062"/>
     </g>
    </g>
    <g id="line2d_18">
     <path d="M 644.617969 53.784156
L 655.617969 53.784156
L 666.617969 53.784156
" style="fill: none; stroke-dasharray: 4.44,1.92; stroke-dashoffset: 0; stroke: #c0392b; stroke-width: 1.2"/>
    </g>
    <g id="text_14">
     <!-- median -568.24 -->
     <g transform="translate(675.417969 57.634156) scale(0.11 -0.11)">
      <defs>
       <path id="DejaVuSans-36" d="M 2113 2584
Q 1688 2584 1439 2293
Q 1191 2003 1191 1497
Q 1191 994 1439 701
Q 1688 409 2113 409
Q 2538 409 2786 701
Q 3034 994 3034 1497
Q 3034 2003 2786 2293
Q 2538 2584 2113 2584
z
M 3366 4563
L 3366 3988
Q 3128 4100 2886 4159
Q 2644 4219 2406 4219
Q 1781 4219 1451 3797
Q 1122 3375 1075 2522
Q 1259 2794 1537 2939
Q 1816 3084 2150 3084
Q 2853 3084 3261 2657
Q 3669 2231 3669 1497
Q 3669 778 3244 343
Q 2819 -91 2113 -91
Q 1303 -91 875 529
Q 447 1150 447 2328
Q 447 3434 972 4092
Q 1497 4750 2381 4750
Q 2619 4750 2861 4703
Q 3103 4656 3366 4563
z
" transform="scale(0.015625)"/>
       <path id="DejaVuSans-38" d="M 2034 2216
Q 1584 2216 1326 1975
Q 1069 1734 1069 1313
Q 1069 891 1326 650
Q 1584 409 2034 409
Q 2484 409 2743 651
Q 3003 894 3003 1313
Q 3003 1734 2745 1975
Q 2488 2216 2034 2216
z
M 1403 2484
Q 997 2584 770 2862
Q 544 3141 544 3541
Q 544 4100 942 4425
Q 1341 4750 2034 4750
Q 2731 4750 3128 4425
Q 3525 4100 3525 3541
Q 3525 3141 3298 2862
Q 3072 2584 2669 2484
Q 3125 2378 3379 2068
Q 3634 1759 3634 1313
Q 3634 634 3220 271
Q 2806 -91 2034 -91
Q 1263 -91 848 271
Q 434 634 434 1313
Q 434 1759 690 2068
Q 947 2378 1403 2484
z
M 1172 3481
Q 1172 3119 1398 2916
Q 1625 2713 2034 2713
Q 2441 2713 2670 2916
Q 2900 3119 2900 3481
Q 2900 3844 2670 4047
Q 2441 4250 2034 4250
Q 1625 4250 1398 4047
Q 1172 3844 1172 3481
z
" transform="scale(0.015625)"/>
      </defs>
      <use xlink:href="#DejaVuSans-6d"/>
      <use xlink:href="#DejaVuSans-65" x="97.412109"/>
      <use xlink:href="#DejaVuSans-64" x="158.935547"/>
      <use xlink:href="#DejaVuSans-69" x="222.412109"/>
      <use xlink:href="#DejaVuSans-61" x="250.195312"/>
      <use xlink:href="#DejaVuSans-6e" x="311.474609"/>
      <use xlink:href="#DejaVuSans-20" x="374.853516"/>
      <use xlink:href="#DejaVuSans-2d" x="406.640625"/>
      <use xlink:href="#DejaVuSans-35" x="442.724609"/>
      <use xlink:href="#DejaVuSans-36" x="506.347656"/>
      <use xlink:href="#DejaVuSans-38" x="569.970703"/>
      <use xlink:href="#DejaVuSans-2e" x="633.59375"/>
      <use xlink:href="#DejaVuSans-32" x="665.380859"/>
      <use xlink:href="#DejaVuSans-34" x="729.003906"/>
     </g>
    </g>
   </g>
  </g>
 </g>
 <defs>
  <clipPath id="p3983963bb0">
   <rect x="56.840938" y="23.229937" width="826.63" height="273.16"/>
  </clipPath>
 </defs>
</svg>
